<svg width="27" height="27" viewBox="0 0 27 27" fill="none" xmlns="http://www.w3.org/2000/svg">
<g clip-path="url(#clip0_69_51)">
<path d="M14.4203 3.625C14.1097 3.31484 13.6888 3.14062 13.2499 3.14062C12.811 3.14062 12.39 3.31484 12.0794 3.625L5.83096 9.87017C5.52026 10.1809 5.3457 10.6023 5.3457 11.0417C5.3457 11.4811 5.52026 11.9025 5.83096 12.2132C6.14167 12.5239 6.56308 12.6985 7.00248 12.6985C7.44189 12.6985 7.8633 12.5239 8.174 12.2132L11.5936 8.79471V21.5313C11.5936 21.9705 11.7681 22.3918 12.0787 22.7024C12.3893 23.013 12.8106 23.1875 13.2499 23.1875C13.6891 23.1875 14.1104 23.013 14.421 22.7024C14.7316 22.3918 14.9061 21.9705 14.9061 21.5313V8.79471L18.3246 12.2132C18.4785 12.3671 18.6611 12.4891 18.8621 12.5724C19.0631 12.6556 19.2786 12.6985 19.4961 12.6985C19.7137 12.6985 19.9291 12.6556 20.1302 12.5724C20.3312 12.4891 20.5138 12.3671 20.6677 12.2132C20.8215 12.0594 20.9435 11.8767 21.0268 11.6757C21.1101 11.4747 21.1529 11.2593 21.1529 11.0417C21.1529 10.8241 21.1101 10.6087 21.0268 10.4077C20.9435 10.2067 20.8215 10.024 20.6677 9.87017L14.4203 3.625Z" fill="white"/>
</g>
<defs>
<clipPath id="clip0_69_51">
<rect width="26.5" height="26.5" fill="white"/>
</clipPath>
</defs>
</svg>
