<svg width="18" height="15" viewBox="0 0 18 15" fill="none" xmlns="http://www.w3.org/2000/svg">
<path id="Vector" d="M2.57151 6H15.3898C15.5818 6.00091 15.7716 5.96149 15.9452 5.88463C16.1188 5.80778 16.2717 5.69547 16.3926 5.55597C16.5136 5.41647 16.5996 5.25334 16.6442 5.07863C16.6887 4.90392 16.6908 4.72207 16.6503 4.5465C16.0545 1.9125 12.8295 0 8.98064 0C5.13179 0 1.90678 1.9125 1.31101 4.5465C1.27044 4.72207 1.27253 4.90392 1.31711 5.07863C1.3617 5.25334 1.44765 5.41647 1.56863 5.55597C1.68961 5.69547 1.84252 5.80778 2.01609 5.88463C2.18967 5.96149 2.37947 6.00091 2.57151 6ZM8.98064 1.2C12.1736 1.2 14.9311 2.74575 15.3898 4.8H2.57151L2.5659 4.79475C3.03016 2.74575 5.7877 1.2 8.98064 1.2ZM17.1001 9.636L13.8021 10.761L10.8249 9.64275C10.672 9.58558 10.5015 9.58558 10.3486 9.64275L7.38176 10.7535L4.41013 9.64275C4.26384 9.58808 4.10115 9.58568 3.95308 9.636L0.424976 10.836C0.275863 10.8974 0.15731 11.0096 0.0933814 11.1497C0.0294527 11.2899 0.0249382 11.4475 0.0807543 11.5907C0.13657 11.7339 0.248535 11.8518 0.393921 11.9206C0.539308 11.9894 0.707223 12.0038 0.863585 11.961L1.92442 11.6018V12C1.92442 12.7956 2.26234 13.5587 2.86384 14.1213C3.46534 14.6839 4.28115 15 5.13179 15H12.8295C13.6801 15 14.4959 14.6839 15.0974 14.1213C15.6989 13.5587 16.0369 12.7956 16.0369 12V11.2748L17.5387 10.764C17.6229 10.7409 17.7012 10.702 17.7687 10.6495C17.8361 10.597 17.8914 10.5322 17.931 10.4589C17.9706 10.3857 17.9937 10.3056 17.9989 10.2237C18.0041 10.1418 17.9912 10.0597 17.9612 9.9826C17.9311 9.90549 17.8845 9.83497 17.8241 9.7754C17.7637 9.71583 17.6909 9.66848 17.6102 9.63628C17.5295 9.60407 17.4426 9.5877 17.3549 9.58816C17.2671 9.58863 17.1804 9.60594 17.1001 9.639V9.636ZM14.7539 12C14.7539 12.4774 14.5512 12.9352 14.1903 13.2728C13.8294 13.6104 13.3399 13.8 12.8295 13.8H5.13179C4.6214 13.8 4.13192 13.6104 3.77102 13.2728C3.41012 12.9352 3.20737 12.4774 3.20737 12V11.166L4.15916 10.842L7.1364 11.9572C7.28928 12.0144 7.45981 12.0144 7.61269 11.9572L10.5795 10.8465L13.5463 11.9572C13.6926 12.0119 13.8553 12.0143 14.0034 11.964L14.7467 11.7113L14.7539 12ZM0 7.8C0 7.64087 0.0675837 7.48826 0.187883 7.37574C0.308183 7.26321 0.471345 7.2 0.641474 7.2H17.3198C17.4899 7.2 17.6531 7.26321 17.7734 7.37574C17.8937 7.48826 17.9613 7.64087 17.9613 7.8C17.9613 7.95913 17.8937 8.11174 17.7734 8.22427C17.6531 8.33679 17.4899 8.4 17.3198 8.4H0.641474C0.471345 8.4 0.308183 8.33679 0.187883 8.22427C0.0675837 8.11174 0 7.95913 0 7.8Z" fill="#FF8D07"/>
</svg>
