<svg width="44" height="39" viewBox="0 0 44 39" fill="none" xmlns="http://www.w3.org/2000/svg">
<path fill-rule="evenodd" clip-rule="evenodd" d="M21.9119 12.0863C8.72157 -18.7018 1.84774 16.4581 0.00159101 38.5203C-0.0203412 38.7824 0.187297 39 0.450311 39H5.15135C5.39553 39 5.59493 38.8134 5.60179 38.5693C5.93483 26.724 7.76531 3.64441 12.5691 2.75482C17.3717 1.86545 19.2024 24.0334 19.5361 35.6424C19.5432 35.8864 19.7425 36.0734 19.9866 36.0734H21.7992C21.8381 36.0734 21.8759 36.0685 21.9119 36.0595C21.9479 36.0685 21.9856 36.0734 22.0245 36.0734H23.8371C24.0812 36.0734 24.2806 35.8864 24.2876 35.6424C24.6213 24.0334 26.452 1.86545 31.2546 2.75482C36.0584 3.64441 37.8889 26.724 38.2219 38.5693C38.2288 38.8134 38.4282 39 38.6724 39H43.3734C43.6364 39 43.8441 38.7824 43.8221 38.5203C41.976 16.4581 35.1022 -18.7018 21.9119 12.0863Z" fill="#FEB81E"/>
<g clip-path="url(#clip0_3_29)">
<path d="M21.9038 23.8633L21.9641 22.7063C21.965 22.6873 21.9616 22.6683 21.9542 22.6508C21.9467 22.6332 21.9355 22.6176 21.9212 22.605C21.9069 22.5924 21.89 22.5831 21.8717 22.5779C21.8533 22.5727 21.8341 22.5717 21.8153 22.5749L20.6637 22.7774L20.8192 22.3483C20.8255 22.3313 20.8263 22.3127 20.8215 22.2951C20.8167 22.2776 20.8065 22.2619 20.7924 22.2505L19.5308 21.2289L19.815 21.0961C19.8342 21.0871 19.8494 21.0713 19.8578 21.0518C19.8662 21.0323 19.8672 21.0104 19.8606 20.9902L19.6112 20.2233L20.3379 20.3775C20.3575 20.3816 20.378 20.3788 20.3959 20.3695C20.4137 20.3602 20.4278 20.3451 20.4357 20.3266L20.5765 19.9954L21.1436 20.6041C21.1566 20.6178 21.1736 20.6269 21.1922 20.6301C21.2108 20.6332 21.2299 20.6303 21.2467 20.6217C21.2634 20.6131 21.277 20.5992 21.2852 20.5823C21.2935 20.5654 21.296 20.5462 21.2924 20.5277L21.0189 19.1173L21.4573 19.3707C21.4676 19.3767 21.4791 19.3805 21.4909 19.382C21.5027 19.3834 21.5148 19.3824 21.5262 19.379C21.5376 19.3756 21.5483 19.3699 21.5574 19.3623C21.5665 19.3546 21.574 19.3451 21.5793 19.3345L22.0245 18.4603L22.4696 19.3345C22.4749 19.3451 22.4824 19.3546 22.4915 19.3623C22.5007 19.3699 22.5113 19.3756 22.5227 19.379C22.5342 19.3824 22.5462 19.3834 22.558 19.382C22.5699 19.3805 22.5813 19.3767 22.5916 19.3707L23.03 19.1173L22.7565 20.5277C22.7529 20.5462 22.7555 20.5654 22.7637 20.5823C22.772 20.5992 22.7855 20.6131 22.8022 20.6217C22.819 20.6303 22.8381 20.6332 22.8567 20.6301C22.8753 20.6269 22.8923 20.6178 22.9053 20.6041L23.4724 19.9954L23.6132 20.3266C23.6211 20.3451 23.6352 20.3602 23.653 20.3695C23.6709 20.3788 23.6914 20.3816 23.7111 20.3775L24.4377 20.2233L24.1883 20.9902C24.1817 21.0104 24.1827 21.0323 24.1911 21.0518C24.1995 21.0713 24.2147 21.0871 24.2339 21.0961L24.5182 21.2289L23.2566 22.2505C23.2424 22.2619 23.2322 22.2776 23.2274 22.2951C23.2226 22.3127 23.2234 22.3313 23.2297 22.3483L23.3853 22.7774L22.2336 22.5749C22.2148 22.5717 22.1956 22.5727 22.1773 22.5779C22.1589 22.5831 22.142 22.5924 22.1277 22.605C22.1134 22.6176 22.1022 22.6332 22.0947 22.6508C22.0873 22.6683 22.0839 22.6873 22.0848 22.7063L22.1451 23.8633H21.9038Z" fill="#D20E14"/>
</g>
<defs>
<clipPath id="clip0_3_29">
<rect width="5.40301" height="5.40301" fill="white" transform="translate(19.323 18.4603)"/>
</clipPath>
</defs>
</svg>
