<svg width="40" height="40" viewBox="0 0 40 40" fill="none" xmlns="http://www.w3.org/2000/svg">
<path d="M19.7623 3.70541C28.6159 3.70541 35.8193 10.9088 35.8193 19.7624C35.8193 28.616 28.6159 35.8195 19.7623 35.8195C10.9087 35.8195 3.70527 28.616 3.70527 19.7624C3.70527 10.9088 10.9087 3.70541 19.7623 3.70541ZM19.7623 6.17573C12.2439 6.17573 6.17558 12.244 6.17558 19.7624C6.17558 27.2808 12.2439 33.3492 19.7623 33.3492C27.2807 33.3492 33.349 27.2808 33.349 19.7624C33.349 12.244 27.2807 6.17573 19.7623 6.17573ZM20.6516 11.85L27.6735 18.8731L28.5628 19.7624L27.6735 20.6518L20.6491 27.6749L18.873 25.9382L23.8136 20.9976L11.1162 20.9976V18.5273L23.8136 18.5273L18.873 13.5867L20.6516 11.85Z" fill="black"/>
</svg>
