<svg width="40" height="40" viewBox="0 0 40 40" fill="none" xmlns="http://www.w3.org/2000/svg">
<path d="M19.7626 3.70541C10.909 3.70541 3.70557 10.9088 3.70557 19.7624C3.70557 28.616 10.909 35.8195 19.7626 35.8195C28.6162 35.8195 35.8196 28.616 35.8196 19.7624C35.8196 10.9088 28.6162 3.70541 19.7626 3.70541ZM19.7626 6.17573C27.281 6.17573 33.3493 12.244 33.3493 19.7624C33.3493 27.2808 27.281 33.3492 19.7626 33.3492C12.2442 33.3492 6.17588 27.2808 6.17588 19.7624C6.17588 12.244 12.2442 6.17573 19.7626 6.17573ZM18.8733 11.85L11.8514 18.8731L10.9621 19.7624L11.8514 20.6518L18.8758 27.6749L20.6519 25.9382L15.7113 20.9976L28.4087 20.9976V18.5273L15.7113 18.5273L20.6519 13.5867L18.8733 11.85Z" fill="black"/>
</svg>
